pedal_clip_forces_x_-0.1_y_-0.06.mot
version=1
nRows=210
nColumns=4
inDegrees=yes
endheader
time	PedalClip_calcn_r_Fx	PedalClip_calcn_r_Fy	PedalClip_calcn_r_Fz
0	9.23089420964842	11.896219742429	0
0.00107264	9.06945936093422	12.0936377478036	0
0.00549146	8.90755661590256	12.2882096620124	0
0.00991028	8.74518386765232	12.4799549699055	0
0.01432909	8.58233892805744	12.6688940124397	0
0.01722005	8.41901998201837	12.8550480356663	0
0.02099263	8.25522560162612	13.0384392432016	0
0.02404905	8.09095476144745	13.2190908524591	0
0.02815829	7.92620706425699	13.3970271549571	0
0.03029721	7.76098333468097	13.5722747028144	0
0.0332	7.59528512652342	13.7448660220726	0
0.03619549	7.42911531997009	13.9148381285893	0
0.0387042	7.26247790489519	14.0822329113153	0
0.04151459	7.09537675778582	14.2470961720878	0
0.04314766	6.92781611648558	14.4094742295006	0
0.04563379	6.75979976604338	14.5694144578003	0
0.04707831	6.59133134802927	14.7269630065106	0
0.04921227	6.4224148186462	14.8821637675588	0
0.05075616	6.25305417568059	15.0350583434131	0
0.05285351	6.08325355477044	15.1856860910904	0
0.05395703	5.91301708480996	15.3340841308297	0
0.05506054	5.74234913105741	15.4802875313022	0
0.05551137	5.57125377555471	15.6243292013078	0
0.05695538	5.39973497755025	15.766239579931	0
0.0580683	5.22779656575004	15.9060464408321	0
0.05960117	5.0554422384007	16.0437747385067	0
0.06067126	4.88267532726505	16.1794463971763	0
0.06208496	4.70949897679115	16.3130800376764	0
0.06301092	4.53591589985801	16.4446907254493	0
0.06393689	4.36192858541773	16.5742896556577	0
0.06439987	4.18753870300168	16.7018841754953	0
0.06555733	4.01274727976753	16.8274768837927	0
0.06645299	3.83755467967011	16.9510648915447	0
0.06753212	3.66196044539127	17.0726393849597	0
0.06825631	3.48596249752697	17.1921857769152	0
0.06940005	3.30955748929652	17.3096822452151	0
0.07088685	3.13274061773559	17.4250987863257	0
0.07165544	2.95550493875777	17.5383968969224	0
0.07242402	2.7778418224687	17.6495284236525	0
0.0736649	2.59973969537813	17.7584372710289	0
0.0744433	2.42118387667362	17.8650567053396	0
0.07453227	2.24215707663005	17.9693062776359	0
0.07476926	2.06263829410006	18.0710928755433	0
0.07541073	1.88260160987369	18.1703111756593	0
0.07576662	1.70201541090196	18.2668422559751	0
0.07623833	1.52084356855634	18.3605505877084	0
0.07758731	1.33904835159965	18.4512838303373	0
0.07824747	1.1565965606137	18.5388793769521	0
0.07890764	0.973471614065179	18.6231871917658	0
0.07947046	0.789691526807416	18.7041312973963	0
0.0799619	0.604934757662066	18.7867043129993	0
0.0808336	0.41973141804839	18.8685668207927	0
0.08170531	0.234161848312719	18.9499446798083	0
0.08213079	0.0483031366009692	19.0311110640121	0
0.08268033	-0.137755732619208	19.1123795779906	0
0.08336634	-0.323939416715342	19.1940820840993	0
0.08405235	-0.510190504497242	19.2765536133296	0
0.08441922	-0.69645664289729	19.3601029317084	0
0.08491164	-0.882683017021994	19.4449630797096	0
0.0855827	-1.06883203331744	19.5311846938273	0
0.08625377	-1.25489333980425	19.6187322270923	0
0.08656651	-1.44084882925938	19.7074581810792	0
0.08698927	-1.62666020840281	19.7972304367763	0
0.08768123	-1.81231973617782	19.8879560298813	0
0.0883732	-1.99782994782107	19.9795362702886	0
0.08869234	-2.1832153054054	20.0719244234945	0
0.08910094	-2.36849246793923	20.1650994553082	0
0.08974412	-2.55364270961419	20.2590557025451	0
0.09038731	-2.73864806862557	20.3538091402273	0
0.09072197	-2.92350111027092	20.449360289618	0
0.09111434	-3.10818470742782	20.5456765496726	0
0.09172101	-3.29264850265914	20.6427162945497	0
0.09232768	-3.47682831755753	20.740438784538	0
0.09268588	-3.66065604893678	20.8388244481347	0
0.09306996	-3.84407918417568	20.937861128124	0
0.09363737	-4.027043077048	21.0375097220616	0
0.09420478	-4.20947526802666	21.1376926542683	0
0.09458758	-4.39127038998985	21.2383000833394	0
0.0949672	-4.5722980163778	21.3392043287839	0
0.09549923	-4.75240364818551	21.4402758068282	0
0.09603127	-4.93147432094839	21.5414606076697	0
0.09650372	-5.10945461119178	21.6427698336308	0
0.09707778	-5.28632252239659	21.7442212959042	0
0.09765183	-5.46204825810529	21.8457936671854	0
0.09796915	-5.63662624376019	21.947468563204	0
0.09832226	-5.81005658329185	22.0492226686086	0
0.09881343	-5.98232936963852	22.1510125891189	0
0.0993046	-6.15344332931444	22.2527984744004	0
0.09979577	-6.32342331373731	22.3545826877444	0
0.09991707	-6.492347444465	22.4564449829233	0
0.10028509	-6.66028603170643	22.5584615025524	0
0.100744	-6.82724631477415	22.6606186328581	0
0.10120291	-6.99320380115123	22.7628581058501	0
0.1012488	-7.15814407423323	22.8651478762914	0
0.10140403	-7.32210669333667	22.9675456077601	0
0.10165917	-7.48516750050371	23.0701666963144	0
0.10202744	-7.64740708546827	23.1731245936481	0
0.10221157	-7.80887347039586	23.276471179007	0
0.1027679	-7.9695742170831	23.3801874521718	0
0.10329431	-8.12952110890051	23.4842613782363	0
0.10371344	-8.28876059853445	23.5887310846747	0
0.10413256	-8.44735526516115	23.6936530236565	0
0.1046934	-8.6053659748851	23.7990667760557	0
0.10474949	-8.76284507374723	23.9049961331721	0
0.10481705	-8.91982562067133	24.0114291120576	0
0.10515485	-9.07632139683052	24.1183176369582	0
0.10557298	-9.23235211120139	24.2256283171233	0
0.10599111	-9.38797324827716	24.3333924319295	0
0.10613985	-9.5432496322633	24.4416518562292	0
0.10641403	-9.69821195708336	24.5503866956703	0
0.10684546	-9.85285949394518	24.6595161064459	0
0.10700683	-10.0071872700032	24.7689711638062	0
0.10726148	-10.1612014454854	24.8787325042469	0
0.10738505	-10.3149298353753	24.9888122634374	0
0.10770219	-10.4684150180609	25.0992114015536	0
0.10810871	-10.6216828874249	25.2099190817111	0
0.10823019	-10.774740821383	25.320894757906	0
0.10845133	-10.9275823033096	25.4320723881401	0
0.10890154	-11.0802038989159	25.5434129679798	0
0.10950648	-11.2326217275667	25.6549556119982	0
0.11000846	-11.3848737980697	25.7667564381067	0
0.11005866	-11.5369849595815	25.8788207328236	0
0.11018254	-11.6889585885512	25.99110083906	0
0.11040503	-11.8407738620261	26.1035694669241	0
0.11071189	-11.992413640361	26.2162541305116	0
0.11086533	-12.1438804944206	26.3292139653601	0
0.11136941	-12.2951944886001	26.4424923603053	0
0.11164623	-12.4463588010644	26.5561224311499	0
0.11202193	-12.597364903575	26.6701098089526	0
0.11211325	-12.7481811127564	26.7844166414424	0
0.11231131	-12.8987646630883	26.8990102924872	0
0.11295131	-13.0490948216416	27.0139342351114	0
0.1130486	-13.1991813273204	27.1292483665717	0
0.1132627	-13.349011532264	27.2449496397221	0
0.1136408	-13.4985690283312	27.3610222067214	0
0.11389779	-13.6478270828245	27.477434474619	0
0.11427065	-13.7967520105696	27.5941571293263	0
0.11434371	-13.9453143118771	27.7111633156815	0
0.11447982	-14.0935168865537	27.8284555850313	0
0.11496997	-14.2413791337425	27.9460377930863	0
0.11508894	-14.3888978552343	28.0638645646755	0
0.11532693	-14.5360295489364	28.1818230809391	0
0.1156802	-14.6827049341049	28.2997674856735	0
0.11575102	-14.8288612057278	28.4175774924172	0
0.11587969	-14.974430538977	28.5351309948088	0
0.1163483	-15.1193126434738	28.6522965900903	0
0.11649998	-15.2634038713993	28.7689609722936	0
0.11673451	-15.4066227513782	28.88504252882	0
0.11708452	-15.5489319319472	29.0005205779483	0
0.1171467	-15.690334305315	29.1154199244936	0
0.11727468	-15.8308391901016	29.2297574710349	0
0.11769131	-15.9704281223573	29.3435092263967	0
0.11782907	-16.1090869198976	29.4566772257819	0
0.11806905	-16.2468178763749	29.5692857501308	0
0.11841488	-16.3836919717606	29.6814202650816	0
0.11847017	-16.5198247243551	29.7932148689222	0
0.11859773	-16.6553460220172	29.9048055873411	0
0.1189734	-16.7903591333121	30.0162840734887	0
0.11910222	-16.9249502557101	30.1277469122129	0
0.11934898	-17.0591953966072	30.2392802380223	0
0.11969133	-17.1931881038123	30.3509726510794	0
0.11974019	-17.3270178653592	30.4629118565103	0
0.11986778	-17.4607511003895	30.5752076409695	0
0.12020385	-17.5944282797518	30.6879667096383	0
0.12033138	-17.7280598325421	30.8012495749421	0
0.12057427	-17.8616524951084	30.9150660067355	0
0.12091776	-17.9952327308655	31.0293868556652	0
0.12096225	-18.1288029136604	31.1441629492866	0
0.12109126	-18.2623539985423	31.259358869	0
0.12139925	-18.3958936593248	31.3749481110892	0
0.12151265	-18.5294753891478	31.4909269826826	0
0.12174029	-18.6631830694278	31.6073344742792	0
0.12209122	-18.7970739395235	31.7241796860818	0
0.12212647	-18.9311299519649	31.8414305919053	0
0.12226156	-19.0652998375744	31.9590565474891	0
0.12252024	-19.1995466678975	32.0770545319049	0
0.12260261	-19.3338818494135	32.1954793460525	0
0.12283322	-19.4683465845802	32.3143982714412	0
0.12314973	-19.6029633027573	32.4338166130501	0
0.12320391	-19.7377253141778	32.553659392772	0
0.12332363	-19.8726067002964	32.67385297379	0
0.12367019	-20.0076299625103	32.7944303834233	0
0.12379785	-20.1428843529022	32.9155238898872	0
0.12404147	-20.2784541421179	33.037261205514	0
0.12439233	-20.4143848759958	33.1597123165634	0
0.12442742	-20.5507079237425	33.282899897834	0
0.12456186	-20.6874511188902	33.4068057483748	0
0.12482079	-20.8246575741339	33.5314062058494	0
0.12490509	-20.9623690030253	33.6567277068353	0
0.12512661	-21.1006394589987	33.7828448106501	0
0.12544292	-21.239526525274	33.9098299821331	0
0.12549542	-21.3790742605761	34.0377147544397	0
0.12561515	-21.5193124347744	34.166477604603	0
0.12595302	-21.6602492354594	34.2960397719012	0
0.12607746	-21.8018709612745	34.4263298490794	0
0.12631742	-21.9441990855117	34.5573703121408	0
0.12667957	-22.0872903872715	34.6892504589367	0
0.12671578	-22.2312173068945	34.8220887704104	0
0.12684653	-22.3760464603281	34.9559704665869	0
0.12710082	-22.5218089395515	35.0909026214998	0
0.12718062	-22.6684901203637	35.2268541533637	0
0.12740221	-22.816058376088	35.3638045089526	0
0.12771409	-22.9645107138693	35.5017887203615	0
0.12776613	-23.1138722295152	35.6408842747709	0
0.12788467	-23.2641835592449	35.7811535031306	0
0.12821717	-23.4154618847741	35.9225846690687	0
0.12833957	-23.5676925528283	36.0651350274825	0
0.12857668	-23.7208504389709	36.2087794294815	0
0.12900409	-23.8749246383329	36.3535398054605	0
0.12904683	-24.0299138134002	36.4994730281047	0
